<?xml version="1.0" standalone="no"?>
<!DOCTYPE svg PUBLIC "-//W3C//DTD SVG 1.1//EN" "http://www.w3.org/Graphics/SVG/1.1/DTD/svg11.dtd" >
<svg xmlns="http://www.w3.org/2000/svg" xmlns:xlink="http://www.w3.org/1999/xlink" version="1.1">
<metadata>
Created by FontForge 20170731 at Thu Dec 31 17:29:19 2020
 By Aleksey,,,

Created by iconfont

</metadata>
<defs>
<font id="iconfont" horiz-adv-x="1024" >
  <font-face 
    font-family="iconfont"
    font-weight="400"
    font-stretch="normal"
    units-per-em="1024"
    panose-1="2 0 5 3 0 0 0 0 0 0"
    ascent="896"
    descent="-128"
    bbox="-0.344828 -128 1197 896"
    underline-thickness="0"
    underline-position="10"
    unicode-range="U+E600-EBAC"
  />
<missing-glyph 
 />
    <glyph glyph-name=".notdef" 
 />
    <glyph glyph-name=".null" horiz-adv-x="0" 
 />
    <glyph glyph-name="nonmarkingreturn" horiz-adv-x="341" 
 />
    <glyph glyph-name="youhuiquan" unicode="&#xe600;" 
d="M188 582q3 -1 6 -1q15 1 21 16l17 56q7 22 27 32.5t42 4.5l328 -99q9 -3 16.5 1.5t10.5 13t-1.5 16.5t-12.5 11l-328 99q-39 11 -75 -8t-49 -58l-17 -57q-2 -9 2 -16.5t13 -10.5zM395 755q8 -5 16.5 -3t13.5 9l19 29q13 19 35.5 23.5t41.5 -7.5l320 -213q5 -3 12 -3
q11 0 18 9q5 8 3 16.5t-9 14.5l-320 212q-34 22 -74 14t-63 -42l-19 -28q-5 -8 -3.5 -16.5t9.5 -14.5zM527 407q-7 4 -15 4q-17 0 -28 -14l-90 -115l-90 115q-11 14 -28 14q-8 0 -15 -4q-10 -7 -11.5 -18.5t6.5 -22.5l88 -113h-40q-15 0 -25 -7.5t-10 -19.5t10 -19.5
t25 -7.5h56v-23h-56q-15 0 -25 -8t-10 -19.5t10 -19t25 -7.5h56v-52q1 -15 9.5 -25t21 -10t21 10t9.5 25v52h61q15 0 25 7.5t9.5 19t-10 19.5t-24.5 8h-61v23h61q15 0 25 7.5t9.5 19.5t-10 19.5t-24.5 7.5h-38l88 113q8 11 6.5 22.5t-11.5 18.5zM719 498q-9 0 -15.5 -6.5
t-6.5 -15.5v-71q0 -9 6.5 -15t15.5 -6t15.5 6t6.5 15v71q0 9 -6.5 15.5t-15.5 6.5zM719 360q-9 -1 -15.5 -7t-6.5 -15v-71q0 -9 6.5 -15.5t15.5 -6.5t15.5 6.5t6.5 15.5v71q0 9 -6.5 15t-15.5 7zM719 222q-9 -1 -15.5 -7t-6.5 -15v-71q0 -9 6.5 -15.5t15.5 -6.5t15.5 6.5
t6.5 15.5v71q0 9 -6.5 15t-15.5 7zM719 83q-9 0 -15.5 -6t-6.5 -15v-71q0 -10 6.5 -16t15.5 -6t15.5 6t6.5 16v71q0 9 -6.5 15t-15.5 6zM967 268q11 9 21.5 24.5t10.5 41t-10.5 41t-21 24.5t-15.5 16.5t-5 18t5 18t15.5 16.5t21 24.5t11.5 40.5q-1 12 -8.5 19.5t-19.5 8.5
h-831q-45 -1 -74.5 -31t-30.5 -74v-445q1 -45 30.5 -74.5t74.5 -30.5h831q12 0 19.5 8t8.5 19q-1 26 -11.5 41.5t-21 24.5t-15.5 16.5t-5 18t5 18t15.5 16.5t21 24.5t10.5 41t-10.5 41t-21 24.5t-15.5 16.5t-5 18t5 18t15 16.5zM937 299q-12 -9 -22.5 -24.5t-10.5 -41
t10.5 -41t21 -24.5t15.5 -16.5t5 -18t-5 -18t-15.5 -16.5t-21 -24.5t-10.5 -41t10.5 -41t22.5 -24.5l7 -7h-803q-21 0 -35.5 14t-14.5 36v445q0 21 14.5 35.5t35.5 14.5h803l-7 -7q-12 -9 -22.5 -24.5t-10.5 -41t10.5 -41t21 -24.5t15.5 -16.5t5 -18t-5 -18t-14 -16.5z" />
    <glyph glyph-name="card" unicode="&#xe601;" horiz-adv-x="1205" 
d="M1122 604q-12 12 -27.5 22t-32.5 16l-747 247q-12 5 -23 6t-22 1q-41 -1 -74 -25.5t-46 -64.5l-142 -433q-11 -23 -7.5 -48.5t15.5 -48.5q5 -17 16.5 -29.5t27.5 -23.5l-7 -30q-5 -40 10.5 -75.5t49.5 -58.5v-38q1 -63 43.5 -105t105.5 -44h785q63 2 105.5 44t44.5 105
v456q-1 46 -21 78t-54 49zM143 560l15 74q6 40 35 64.5t69 25.5h15l613 -97h-628q-34 -1 -65 -20t-54 -47zM180 119h964v-83h-964v83zM180 141v336q1 35 25.5 62t64.5 28h777q35 -1 61.5 -25.5t28.5 -64.5v-336h-957zM38 283q-11 17 -12 37.5t5 37.5l142 433q11 34 37 54.5
t60 20.5q6 0 15 -1t15 -6l680 -225l-703 120q-57 10 -99.5 -22.5t-49.5 -89.5l-60 -389q-11 6 -18 15t-12 15zM83 193l30 210v-299q-17 12 -23.5 36.5t-6.5 52.5zM1047 -61h-785q-34 1 -55 20t-27 48h957q-7 -29 -31.5 -48t-58.5 -20zM516 462h-254q-6 0 -10 -4.5t-5 -9.5
v-202q1 -6 5 -10.5t10 -4.5h254q6 0 10.5 4.5t4.5 10.5v202q0 5 -4.5 9.5t-10.5 4.5zM277 268v38h53q5 0 9.5 4.5t4.5 10t-4.5 10t-9.5 4.5h-53v38h53q5 0 9.5 4.5t4.5 10.5t-4.5 10t-9.5 5h-53v30h224v-38h-59q-6 0 -10.5 -4.5t-4.5 -10.5l4 -3q5 -4 11 -4h52v-38h-52
q-6 0 -10.5 -4.5t-4.5 -10t4.5 -10t10.5 -4.5h52v-38h-217zM898 358q28 1 47 19.5t19 47.5t-19 48t-47.5 19t-47.5 -19t-19 -48t19 -47.5t48 -19.5zM898 470q17 0 27 -10t10 -27t-10 -27.5t-27 -10.5t-27.5 10.5t-10.5 27.5q-4 12 8 24t30 13zM935 350h-75q-29 0 -51 -19
t-24 -48v-60q1 -6 5.5 -10t9.5 -5h195q6 1 10 5t5 10v53q-1 34 -23.5 54t-51.5 20zM980 238h-165v45q1 18 14.5 31t30.5 14h75q18 -1 31 -14t14 -31v-45z" />
    <glyph glyph-name="icon-lanren" unicode="&#xe605;" 
d="M47 614v-479v479zM69 614v-479v479zM69 614v-479v479zM91 614v-479v479zM91 614v-479v479zM113 614v-479v479zM135 614v-479v479zM135 614v-479v479zM156 614v-479v479zM178 614v-479v479zM200 614v-479v479zM200 614v-479v479zM222 614v-479v479zM222 614v-479v479z
M243 614v-479v479zM265 614v-479v479zM287 614v-479v479zM309 614v-479v479zM309 614v-479v479zM309 614v-479v479zM331 614v-479v479zM352 614v-479v479zM374 614v-479v479zM374 614v-479v479zM396 614v-479v479zM418 614v-479v479zM418 614v-479v479zM440 614v-479v479z
M440 614v-479v479zM461 614v-479v479zM483 614v-479v479zM505 614v-479v479zM527 614v-479v479zM527 614v-479v479zM549 614v-479v479zM549 614v-479v479zM570 614v-479v479zM592 614v-479v479zM614 614v-479v479zM614 614v-479v479zM636 614v-479v479zM657 614v-479v479z
M657 614v-479v479zM679 614v-479v479zM679 614v-479v479zM701 614v-479v479zM723 614v-479v479zM745 614v-479v479zM766 614v-479v479zM766 614v-479v479zM766 614v-479v479zM788 614v-479v479zM810 614v-479v479zM832 614v-479v479zM832 614v-479v479zM854 614v-479v479z
M875 614v-479v479zM875 614v-479v479zM897 614v-479v479zM897 614v-479v479zM919 614v-479v479zM941 614v-479v479zM962 614v-479v479zM984 614v-479v479zM984 614v-479v479zM984 614v-479v479zM1006 614v-479v479zM78 522l-25 -294h-27l25 294h27zM158 614l-42 -479h-64
l42 479h64zM185 522l-26 -294h-26l25 294h27zM219 301l-19 -166h-39l19 166h39zM343 346q-1 -12 -9.5 -21t-20.5 -9h-26l-16 -181h-58l16 181h-54l17 187h54l4 39h-53l3 32h53l3 40h55l-3 -40h53l-3 -32h-53l-3 -39h54zM227 348h8l11 122h-9zM332 301l-9 -166h-39l9 166h39z
M297 470l-11 -122h2q3 0 5 2t3 8l10 112h-9zM501 242h-43l29 -107h-54l-16 59l-24 -59h-54l48 107h-44l21 236h76l22 70h-26l-15 -50h-57l33 116h57l-8 -27h81l-31 -109h26zM451 269l6 -25l18 195h-70l-17 -195l11 25l14 153h51zM896 614l-75 -141l163 -338h-117l-108 220
l-115 -220h-117l252 479h117z" />
    <glyph glyph-name="haibao" unicode="&#xe629;" horiz-adv-x="1111" 
d="M988 896h-864q-53 -1 -88 -36t-36 -88v-776q1 -53 36 -88t88 -36h864q52 1 87 36t36 88v776q-1 53 -36 88t-87 36zM273 751q48 -1 80 -33t33 -80q-2 -48 -33.5 -79.5t-79.5 -32.5q-48 1 -80 33t-33 80q0 22 8.5 42.5t24.5 36.5t37 24.5t43 8.5zM124 57l216 287l154 -185
l216 278l278 -380h-864z" />
    <glyph glyph-name="shuangxiajiantou-" unicode="&#xe62a;" 
d="M820 745q14 14 33 9t24 -24.5t-9 -33.5l-332 -332q-11 -10 -24.5 -10t-23.5 10l-332 332q-14 14 -9 33.5t24 24.5t33 -9l308 -308zM820 403q14 15 33 10t24 -24.5t-9 -33.5l-332 -332q-11 -10 -24.5 -10t-23.5 10l-332 332q-9 11 -8.5 24t10 23t23 10t23.5 -9l308 -307z
" />
    <glyph glyph-name="yaoqinghan" unicode="&#xe62c;" 
d="M973 551v4l-1 4l8 8l-8 -18q-10 11 -28 19t-37 9h-25v203q0 39 -20 57t-59 18h-584q-38 0 -58 -18t-20 -57l-1 -201h-24q-36 -3 -61 -27l-9 16l8 -14h1l-17 21l1 1q27 26 65 31v173q2 49 34 82t81 34h584q49 -1 81.5 -34t33.5 -82v-172q41 -5 70 -33l1 -1l-16 -20v-3z
M104 597h36v-113l-36 7v106zM884 647h34v-161l-34 -4l-2 165h2zM418 503l79 -78q5 -5 13 -5t13 5l80 80q20 23 19.5 52t-21.5 51q-19 18 -44 21t-47 -10q-18 11 -39 11q-31 0 -52.5 -22t-21.5 -52t21 -52v-1zM418 503zM988 575q-8 6 -16 0l-443 -443q-6 -7 -16 -7t-17 7
l-442 443q-8 7 -16 0q-33 -31 -33 -72v-524q2 -45 34.5 -75.5t81.5 -31.5h782q49 1 81.5 31.5t34.5 75.5v524q-1 31 -14.5 50.5t-16.5 21.5z" />
    <glyph glyph-name="chepiao" unicode="&#xe638;" 
d="M164 140q0 -31 21 -52t52.5 -21t52.5 21t21 52.5t-21 52t-52.5 20.5t-52.5 -20.5t-21 -52.5zM264 140q0 -11 -7.5 -18.5t-19 -7.5t-19 7.5t-7.5 19t7.5 19t19 7.5t19 -7.5t7.5 -19.5zM938 -86l-89 91q39 26 60 65t21 86v556q-2 77 -53 128t-128 53h-489q-77 -2 -128 -53
t-53 -128v-556q1 -48 24 -89t64 -66l-80 -83q-6 -7 -6 -17t7 -16.5t16.5 -6.5t17.5 7l92 96q23 -6 46 -6h388q5 1 38 -4t63 -22q6 -4 13 -4q12 0 20 10q5 9 3 18.5t-10 14.5q-40 23 -80 29t-46 5h-389q-56 2 -94 39.5t-39 94.5v556q1 57 39 94.5t94 39.5h489
q57 -2 94.5 -39.5t39.5 -94.5v-556q-1 -41 -22.5 -74t-59.5 -49q-11 -5 -13.5 -17t5.5 -21l111 -114q7 -7 17 -7t16.5 6.5t6.5 16t-6 17.5zM768 66q31 1 52 22t21 52.5t-21 52t-52.5 20.5t-52.5 -20.5t-20.5 -52t21 -52.5t52.5 -22zM768 167q11 0 18.5 -7.5t7.5 -19
t-7.5 -19t-19 -7.5t-19 7.5t-7.5 19t7.5 19t19.5 7.5zM854 344v359q-2 47 -33 78t-77 32h-478q-46 -1 -77 -32t-32 -78v-359q1 -46 32 -77t77 -33h478q46 2 77 33t33 77zM266 282q-26 0 -44 18t-18 44v359q0 27 18 44.5t44 18.5h478q26 -1 44 -18.5t18 -44.5v-359
q0 -26 -18 -44t-44 -18h-478z" />
    <glyph glyph-name="pic-fill" unicode="&#xe72e;" 
d="M817 683q28 -1 46 -19t18 -45v-470q0 -27 -18 -45t-46 -19h-597q-27 1 -45 19t-19 45v470q1 27 19 45t45 19h597zM747 525q-188 2 -252 -132l-5 -12q-48 -105 -191 -103v-64q182 -2 249 141l5 12q44 96 194 94v64zM349 542q-12 0 -21.5 -5.5t-15.5 -15.5t-6 -21.5
t6 -21.5t15.5 -15.5t21.5 -5.5q18 0 30 12t12 30.5t-12 30.5t-30 12z" />
    <glyph glyph-name="pic" unicode="&#xe75c;" 
d="M817 683q28 -1 46 -19t18 -45v-470q0 -27 -18 -45t-46 -19h-597q-27 1 -45 19t-19 45v470q1 27 19 45t45 19h597zM817 619h-597v-470h597v470zM747 525v-64q-150 2 -194 -94l-5 -12q-33 -71 -96 -106.5t-153 -34.5v64q143 -2 191 103l5 12q64 134 252 132zM349 542
q12 0 21.5 -5.5t15.5 -15.5t6 -21.5t-6 -21.5t-15.5 -15.5t-21.5 -5.5q-18 0 -30 12t-12 30.5t12 30.5t30 12z" />
    <glyph glyph-name="huiyuan" unicode="&#xe8b1;" 
d="M311 525l160 202q16 19 41 19t41 -19l160 -202l153 65q14 6 28 4t25.5 -11.5t16 -23t2.5 -27.5l-90 -431q-9 -40 -39 -64.5t-71 -25.5h-452q-41 1 -71 25.5t-39 64.5l-90 431q-2 14 2.5 27.5t16 23t25.5 11.5t28 -4zM512 675l-156 -197q-12 -14 -28.5 -18t-33.5 2
l-140 61l85 -409q3 -17 16 -27.5t31 -11.5h452q18 1 31 11.5t16 27.5l85 409l-140 -61q-17 -6 -33.5 -2t-28.5 18z" />
    <glyph glyph-name="shandian" unicode="&#xe8b6;" 
d="M396 309h-172q-17 1 -26 14t-4 30l171 448q3 9 11.5 14.5t18.5 5.5h288q17 0 26 -13.5t3 -30.5l-99 -244h187q21 -1 29 -18.5t-5 -34.5l-459 -522q-18 -18 -38.5 -7.5t-16.5 36.5zM417 757l-147 -384h167q16 0 25.5 -12.5t5.5 -27.5l-61 -231l322 367h-164
q-17 1 -26 14.5t-3 29.5l99 244h-218z" />
    <glyph glyph-name="shoucang" unicode="&#xe8b9;" 
d="M335 -21q-28 -16 -57.5 -9t-46 34.5t-10.5 57.5l47 199q1 7 -4 12l-152 133q-24 22 -26.5 52.5t18 55t51.5 27.5l200 16q7 1 10 7l77 189q13 29 41 41t57.5 -0.5t41.5 -40.5l77 -189q3 -6 10 -7l200 -16q32 -4 51.5 -27.5t17.5 -55t-26 -52.5l-152 -133q-5 -5 -4 -12
l47 -199q6 -31 -9.5 -57t-46.5 -34t-58 8l-171 107q-6 3 -12 0zM552 140l171 -106q4 -3 8.5 -1.5t7 5.5t1.5 10l-46 198q-5 21 1.5 41t22.5 35l152 132q4 4 4.5 9.5t-2.5 9t-8 4.5l-200 16q-22 2 -39 14.5t-25 32.5l-77 188q-2 5 -7 7q-10 3 -15 -7l-77 -188
q-8 -20 -25 -32.5t-39 -14.5l-200 -16q-4 -1 -8 -4q-6 -10 2 -19l152 -132q16 -15 22.5 -35t1.5 -41l-46 -198q-2 -5 1 -10q7 -9 16 -4l171 106q19 11 40 11t40 -11z" />
    <glyph glyph-name="shouye" unicode="&#xe8ba;" 
d="M156 553l312 225q21 14 44 14t44 -14l312 -225q24 -16 36.5 -41t12.5 -54v-362q-1 -50 -34 -83t-83 -34h-576q-50 1 -83 34t-34 83v362q0 29 12.5 54t36.5 41zM193 501q-22 -16 -22 -43v-362q0 -22 15.5 -37.5t37.5 -15.5h576q22 0 37.5 15.5t15.5 37.5v362q0 27 -22 43
l-313 225q-6 4 -12 0z" />
    <glyph glyph-name="tishi" unicode="&#xe8bb;" 
d="M544 107h105q10 1 11 10l-3 95q0 18 14 28q60 40 94 103t35 137q-3 122 -84.5 203.5t-203.5 84.5q-122 -3 -203.5 -84.5t-84.5 -203.5q1 -74 35 -137t94 -103q14 -10 14 -26l4 -97q1 -9 10 -10h99v216l-77 82q-9 10 -8.5 22.5t10.5 22t22.5 9t22.5 -9.5l63 -68l73 69
q10 9 23 8.5t22 -10t9 -22.5t-10 -23l-86 -81v-215zM864 480q0 -85 -37.5 -158.5t-105.5 -124.5l3 -77q0 -32 -21.5 -54.5t-53.5 -22.5h-268q-31 0 -51.5 20.5t-22.5 51.5l-3 81q-68 51 -106 125t-38 159q4 150 103 249t249 103q150 -4 249 -103t103 -249zM416 -64
q-14 0 -23 9t-9 23t9 23t23 9h192q14 0 23 -9t9 -23t-9 -23t-23 -9h-192z" />
    <glyph glyph-name="wode" unicode="&#xe8bc;" 
d="M885 800q19 -1 27.5 -15t1.5 -31q-29 -58 -57 -117q40 -55 61 -119t21 -132q-5 -181 -125.5 -301.5t-301.5 -124.5q-181 4 -301.5 124.5t-125.5 301.5q5 182 125.5 302.5t301.5 124.5q104 0 197 -48q80 35 176 35zM721 701q-15 -7 -30 1q-41 23 -86.5 35t-92.5 12
q-154 -4 -256.5 -106t-106.5 -257q4 -154 106.5 -256t256.5 -106q154 4 256.5 106t106.5 256q0 63 -20.5 121t-59.5 106q-12 16 -4 34q20 43 41 86q-60 -8 -111 -32zM331 533q18 0 30 -12t12 -30v-64q0 -12 -5.5 -21.5t-15.5 -15.5t-21.5 -6t-21.5 6t-15.5 15.5t-5.5 21.5
v64q0 18 12.5 30t30.5 12zM501 533q18 0 30.5 -12t12.5 -30v-64q0 -12 -5.5 -21.5t-15.5 -15.5t-21.5 -6t-21.5 6t-15.5 15.5t-5.5 21.5v64q0 18 12 30t30 12z" />
    <glyph glyph-name="shandian1" unicode="&#xe8c5;" 
d="M396 309h-172q-17 1 -26 14t-4 30l171 448q3 9 11.5 14.5t18.5 5.5h288q17 0 26 -13.5t3 -30.5l-99 -244h187q21 -1 29 -18.5t-5 -34.5l-459 -522q-18 -18 -38.5 -7.5t-16.5 36.5z" />
    <glyph glyph-name="wode1" unicode="&#xe8c6;" 
d="M512 813q104 0 197 -48q80 35 176 35q19 -1 27.5 -15t1.5 -31q-29 -58 -57 -117q40 -55 61 -119t21 -132q-5 -181 -125.5 -301.5t-301.5 -124.5q-181 4 -301.5 124.5t-125.5 301.5q5 182 125.5 302.5t301.5 124.5zM331 533q-18 0 -30.5 -12t-12.5 -30v-64
q0 -12 5.5 -21.5t15.5 -15.5t21.5 -6t21.5 6t15.5 15.5t5.5 21.5v64q0 18 -12 30t-30 12zM501 533q-18 0 -30 -12t-12 -30v-64q0 -12 5.5 -21.5t15.5 -15.5t21.5 -6t21.5 6t15.5 15.5t5.5 21.5v64q0 18 -12.5 30t-30.5 12z" />
    <glyph glyph-name="shouye1" unicode="&#xe8c7;" 
d="M556 778l312 -225q24 -16 36.5 -41t12.5 -54v-362q-1 -50 -34 -83t-83 -34h-160v170q-1 55 -37.5 91t-90.5 37q-54 -1 -90.5 -37t-37.5 -91v-170h-160q-50 1 -83 34t-34 83v362q0 29 12.5 54t36.5 41l312 225q21 14 44 14t44 -14z" />
    <glyph glyph-name="shoucang1" unicode="&#xe8c8;" 
d="M335 -21q-28 -16 -57.5 -9t-46 34.5t-10.5 57.5l47 199q1 7 -4 12l-152 133q-24 22 -26.5 52.5t18 55t51.5 27.5l200 16q7 1 10 7l77 189q13 29 41 41t57.5 -0.5t41.5 -40.5l77 -189q3 -6 10 -7l200 -16q32 -4 51.5 -27.5t17.5 -55t-26 -52.5l-152 -133q-5 -5 -4 -12
l47 -199q6 -31 -9.5 -57t-46.5 -34t-58 8l-171 107q-6 3 -12 0z" />
    <glyph glyph-name="remen" unicode="&#xe8c9;" 
d="M423 -43q-28 -7 -167.5 94t-41.5 403q3 -2 19 -26t14 -42q0 4 23.5 59.5t71.5 106.5q46 46 71 129t-10 130q15 5 132.5 -61.5t154.5 -265.5q0 5 25.5 44.5t75.5 51.5q-2 -1 -7.5 -33t7.5 -87q25 -19 61.5 -199t-216.5 -292q15 1 26.5 90t-150.5 252q-2 -6 -31.5 -63
t-56.5 -93q-9 -4 -35 -64t34 -134z" />
    <glyph glyph-name="huiyuan1" unicode="&#xe8ca;" 
d="M495 726q7 7 17 7t17 -7l176 -223q10 -11 25 -6l171 74q12 4 21.5 -4t7.5 -20l-95 -458q-6 -30 -29 -48.5t-54 -19.5h-480q-31 1 -54 19.5t-29 48.5l-95 458q-2 12 7.5 20t21.5 4l171 -74q15 -5 25 6z" />
    <glyph glyph-name="douyin" unicode="&#xe8db;" 
d="M937 472q-63 0 -122.5 20t-109.5 58v-352q-4 -139 -91.5 -231t-218.5 -95q-132 3 -219 95t-91 231q4 138 91 230t219 95q26 0 50 -4v-187q-24 9 -49 10q-59 -2 -98 -43t-40 -103q1 -62 40 -103t98 -42q59 1 98 42t40 103v700h173q2 -103 67.5 -172t164.5 -71v-181h-2z
" />
    <glyph glyph-name="lan" unicode="&#xead3;" 
d="M511 179v-87v-14q-1 -10 -8 -17q-3 -3 -7 -3t-7 3q-9 7 -9 18q-2 34 2 66q1 7 1 14v63v42q-1 8 -5 15q-3 5 -7.5 5t-7.5 -5q-9 -16 -17 -33q-6 -12 -15 -23l-24 -33q-3 -4 -7 -7q-15 -15 -31 -29h-1q-2 -3 -4 -1t-0.5 5t3.5 5q8 10 14 20l11 18l4 8t5 7l11 23q3 8 7 15
q5 9 7 19q1 5 3 9q5 10 8 21l5 14q3 10 4 19q2 3 -1 5t-6 0q-5 -3 -12 -2q-1 0 -3.5 2.5l-3.5 3.5q-7 12 -13.5 24.5t-7.5 26.5q-1 9 -4 18q-1 7 -1 14q0 4 3.5 7.5t9 6.5t11 7t12 6.5t12.5 6.5q4 3 8 6.5t9 7.5q9 7 19 14q4 3 4 8q-1 23 0 45q0 5 -1 8t-3.5 5.5t-6.5 0.5
q-7 -3 -13.5 -5t-13 -2.5t-12 3t-5.5 10t7 10.5l2 1q7 2 13 5t12.5 4.5t9.5 6.5q2 2 2 4l-1 31v7q1 6 0 11.5t-1 10.5t-1 10l-6 25l-2 6q0 7 7 11q2 1 5 0q9 -4 12 -13q9 -20 14 -42q4 -18 4 -37q0 -4 0.5 -7.5t4.5 -1.5l10 4l12 4q10 2 16 -6l3 -6q3 -4 0 -7l-5 -6
q-3 -4 -8 -6l-24 -8q-5 -2 -5 -8v-43q0 -7 5 -11q7 -7 16 -2l25 11q11 4 22 2q6 -2 10 -7q7 -8 14 -15l9 -9q2 -2 2 -4q1 -7 -3 -13l-4 -9l-7 -12q-5 -9 -9 -17.5t-8 -15.5q-8 -13 -15 -26q-5 -9 -16 -10q-6 -2 -11 -6q-11 -6 -21 -12q-5 -3 -5 -8v-16q-1 -5 4 -8q2 -1 4 -3
q8 -8 19 -14q14 -9 21 -23q5 -9 10 -20q2 -3 2 -6.5t1 -7.5q1 -8 -7 -7t-15 3q-3 1 -5 3l-18 15q-5 5 -10 8l-2 1q-4 2 -4 -3v-17q0 -41 -1 -85zM515 440v-24q0 -3 3 -5l4 -4q2 -1 5.5 0t7.5 3q8 6 13 15l5 9q1 4 3 8l6 12l9 19q3 5 0 9.5t-7.5 6.5t-8 0t-6 -1.5t-5 -1.5
t-6 -2.5t-6.5 -2.5q-7 -4 -13 -9q-4 -3 -4 -9v-23zM426 412q0 -4 2 -9l9 -23q0 -1 1 -2l6 -3q2 -2 6 1l2 1q6 2 12 5q3 1 7 2q1 1 2.5 2l4.5 3q6 3 5 9l1 8q-1 16 1 32l-1 4q-1 3 -3.5 4.5t-5.5 -0.5l-8 -4q-10 -6 -21 -12q-9 -4 -17 -9q-3 -2 -3 -5v-4zM827 321v-40
q1 -26 0 -52q1 -14 1 -28q0 -6 -3 -12q-1 -1 -1 -3q-2 -9 -10 -13q-4 -2 -8 1q-9 4 -13 13l-3 6q-3 5 -2 12q1 3 4 6q5 5 6 12v21q0 21 1 42v54q-1 36 0 71q1 13 0 26q-2 5 -4 9.5t-7 4.5q-28 3 -55 -1q-8 0 -14 -3l-17 -5l-14 -5q-3 -1 -6 -3q-11 -8 -20 -18q-8 -8 -12 -18
q-1 -2 0 -5v-147v-11q2 -13 0 -26q-1 -6 -6 -7.5t-11.5 -2.5t-6.5 6l-2 8q-2 8 -2 17l-1 37q0 10 -1 19t0 16q2 27 2 54v29q0 3 -1 6q-2 6 -1 13q1 3 1 6l2 20q1 14 13 21q9 5 18 8l31 11q5 2 7 6.5t5 8.5q7 11 12 24q3 4 5 9q8 12 13 26l14 36q1 2 -0.5 3.5t-3.5 0.5
l-14 -6q-11 -5 -23 -6l-8 -1q-5 -1 -10 -0.5t-8 -3.5l-6 -7q-11 -12 -24 -22q-7 -5 -14 -7.5t-11.5 -5t-8 -3t-4.5 1.5t2 4l2 1q7 2 12 9q12 15 23 29q4 6 7 13l1 2q3 13 7 24l2 22q1 12 2 22t7 18q3 4 6 2q10 -4 15 -13l2 -6q5 -13 3 -27l-1 -9l-1 -7q1 -10 9 -5l4 2
q4 3 8 5q7 4 13 9q2 2 5 2l3 1q13 3 23 -6q12 -10 23 -22q2 -3 3 -6l8 -13q1 -2 0 -3l-3 -5l-16 -19q-7 -7 -13.5 -13t-11.5 -14q-5 -5 -9 -10q-8 -10 -10 -23q-1 -4 4 -4q23 0 47 1q12 0 23 -4q23 -10 23 -34l-1 -96q1 -13 0 -30zM276 131q1 25 2 48q0 3 1 6q3 10 2 20
l1 110q0 11 1 22l1 4q1 32 0 64q-1 6 0 12q1 3 0 7v36q-1 9 0 18l1 40v34v36q0 7 -1 12.5t-4.5 10.5t-5.5 11v1q-3 5 -4 11t1 10.5t6 5.5q7 1 13 -2l5 -4q5 -5 7 -11l6 -13q4 -6 5 -13q1 -5 0 -10q-1 -18 -1 -37t1 -38v-154q0 -26 1 -50.5t1 -49t-2 -47.5q0 -11 1 -21v-9
q-1 -16 -1 -32q0 -7 -1 -14v-7q2 -14 -2 -28q-3 -10 -8 -18q-2 -3 -6 -5t-8.5 2.5t-6.5 10.5q-5 16 -5 31zM709 338q0 22 1 45q0 11 10 15q5 2 9.5 -1.5t6.5 -9.5q2 -8 2.5 -16t0.5 -15q0 -16 -3 -31q-1 -5 -1 -11q0 -13 -3 -26t-4 -25q-1 -8 -5 -14l-1 -3q-2 -7 -4.5 -15
t-5.5 -16q-2 -5 -4 -11l-5 -14q-3 -6 -6 -13l-8 -18l-17 -33q-3 -6 -9 -10.5t-9.5 -10t-8.5 -7.5l-22 -11q-12 -5 -23 -9q-5 -1 -9 0q-2 0 -2.5 2t1.5 3q6 4 11 9l11 9q6 6 11 12.5t11 12.5t10.5 14t10.5 15q10 15 18 31q5 9 9 18l14 34q4 11 4 22q1 5 2 11l1 6l5 34
q1 13 1 27zM760 148q8 0 16 -3l15 -5q10 -3 19 -9t16 -14t15.5 -16.5t13.5 -19.5q5 -8 9 -16q2 -4 2 -8l1 -5q2 -9 -1 -18q-2 -5 -6 -2q-2 2 -5 2.5t-5 3.5q-10 8 -21 16q-7 5 -14 12l-16 17l-21 21l-14 16q-6 6 -10 13l-5 5l-2 2q-3 5 3 7zM160 339q0 16 7 31q3 5 4.5 10.5
t4.5 10.5q6 9 10 18t14 11q4 1 4 -3l-3 -24q-2 -9 0 -18l2 -10q0 -7 2 -13t2 -13v-23q0 -7 -2 -14l-1 -2q-1 -9 -6 -15l-4 -5q-8 -10 -18 -2q-6 5 -8 12q-8 24 -8 49zM359 490q8 1 15.5 0t13.5 -5l7 -5q4 -2 5 -6q2 -7 1 -14q-1 -3 -4 -5q-5 -3 -10 -3q-12 -2 -24 0
q-5 1 -9 4q-14 6 -24 17q-4 3 -3 8t5 6q14 4 27 3z" />
    <glyph glyph-name="icon_certificate_fil" unicode="&#xeb92;" 
d="M512 320q68 2 113 47t47 113q-2 68 -47 113t-113 47q-68 -2 -113 -47t-47 -113q2 -68 47 -113t113 -47zM512 256q-95 2 -158.5 65.5t-65.5 158.5q2 95 65.5 158.5t158.5 65.5q95 -2 158.5 -65.5t65.5 -158.5q-2 -95 -65.5 -158.5t-158.5 -65.5zM512 160q136 3 226.5 93.5
t93.5 226.5q-3 136 -93.5 226.5t-226.5 93.5q-136 -3 -226.5 -93.5t-93.5 -226.5q3 -136 93.5 -226.5t226.5 -93.5zM512 96q-163 4 -271.5 112.5t-112.5 271.5q4 163 112.5 271.5t271.5 112.5q163 -4 271.5 -112.5t112.5 -271.5q-4 -163 -112.5 -271.5t-271.5 -112.5z
M454 59l-79 -137q-7 -11 -19.5 -14.5t-24.5 3.5q-8 4 -12 12l-63 114l-130 -3q-14 1 -23 9.5t-10 22.5q0 9 5 16l76 133q52 -63 123.5 -104t156.5 -52zM848 219l78 -137q7 -12 3.5 -24t-14.5 -19q-8 -5 -17 -5l-130 3l-63 -114q-7 -12 -19.5 -15.5t-24.5 2.5q-7 5 -12 12
l-79 138q85 12 156 53.5t122 105.5z" />
    <glyph glyph-name="icon_dingtalk_line" unicode="&#xeb93;" 
d="M163 828q3 0 5 -1q27 -12 134.5 -58.5t229.5 -90.5l164 -57q99 -34 127 -45q41 -16 50 -44q6 -14 3.5 -30t-10.5 -29q-31 -58 -85 -144l-60 -96h118l-242 -293l66 204l-112 1l38 128q-17 -7 -41.5 -14.5t-38.5 -10.5q-7 -2 -23 -2q-23 -1 -55 9.5t-66 41.5l-17 18
q-14 15 -23 31q-3 8 -0.5 12.5t9.5 6.5l231 31q-10 0 -98 3.5t-133 9.5q-44 11 -83.5 55t-50.5 95q-1 8 3 11.5t10 3.5h2q26 -5 176 -37l170 -37q-19 6 -163.5 55.5t-182.5 71.5q-38 34 -55.5 89t-10.5 101q1 4 5 7.5t9 3.5zM163 892q-26 -1 -47 -16q-23 -18 -29 -45v-3
q-9 -51 6.5 -113t55.5 -111q-17 -26 -12 -57q11 -52 45.5 -99t79.5 -76q-7 -28 6 -54q11 -21 28 -40t24 -26q35 -34 77.5 -51.5t88.5 -17.5h10l-5 -20q-5 -15 -2 -29.5t12 -26.5t22 -18.5t28 -6.5h25l-40 -123q-6 -22 2 -42.5t28 -32.5q15 -8 31 -8q29 1 49 23l242 294
q12 14 14 32t-6 35t-23 26.5t-34 10.5h-4q25 40 49 79t38.5 65.5t17.5 56.5t-7 57q-21 55 -87 80l-86 31l-207 72q-106 38 -204 79.5t-140 61.5l-15 6q-15 7 -31 7z" />
    <glyph glyph-name="icon_launch_page" unicode="&#xeb96;" 
d="M336 640q-20 1 -33.5 14.5t-13.5 33.5t13.5 33.5t33.5 13.5t33.5 -13.5t13.5 -33.5t-13.5 -33.5t-33.5 -14.5zM320 -32h384q14 0 23 -9t9 -23t-9 -23t-23 -9h-384q-14 0 -23 9t-9 23t9 23t23 9zM832 372l-159 189l-231 -232q-10 -9 -22.5 -9t-22.5 9l-108 106l-97 -96
v-243q0 -14 9 -23t23 -9h576q14 0 23 9t9 23v276zM832 472v296q0 14 -9 23t-23 9h-576q-14 0 -23 -9t-9 -23v-339l74 74q10 9 22.5 9t22.5 -9l108 -106l234 234q10 10 23.5 9t23.5 -11zM128 352v416q1 41 28 68t68 28h576q41 -1 68 -28t28 -68v-672q-1 -41 -28 -68t-68 -28
h-576q-41 1 -68 28t-28 68v256z" />
    <glyph glyph-name="icon_photo" unicode="&#xeb9a;" 
d="M288 448q-27 1 -45 19t-18 45t18 45t45 18t45 -18t18 -45t-18 -45t-45 -19zM928 146l-259 258l-296 -268q-10 -8 -22.5 -8t-21.5 9l-109 108l-124 -100v-81q0 -14 9 -23t23 -9h768q14 0 23 9t9 23v82zM928 236v468q0 14 -9 23t-23 9h-768q-14 0 -23 -9t-9 -23v-477l84 68
q20 15 43.5 14t42.5 -19l86 -86l274 247q20 17 44.5 16.5t43.5 -18.5zM32 160v0v544q1 41 28 68t68 28h768q41 -1 68 -28t28 -68v-640q-1 -41 -28 -68t-68 -28h-768q-41 1 -68 28t-28 68v96z" />
    <glyph glyph-name="icon_dingtalk" unicode="&#xeba6;" 
d="M124 877q4 0 7 -1q29 -14 148.5 -65t255.5 -100l182 -64q109 -38 141 -50q23 -9 36.5 -21t19 -27.5t3 -33.5t-11.5 -33q-35 -63 -95 -159l-67 -106h132l-269 -326l74 227l-124 1l41 142q-18 -8 -45.5 -16.5t-42.5 -11.5q-8 -2 -26 -2q-25 -1 -61 10.5t-74 46.5
q-1 1 -17.5 19t-26.5 35q-3 9 0 14t11 7l256 35q-11 0 -108.5 3.5t-147.5 10.5q-49 12 -93 61t-57 105q0 9 4.5 13t10.5 4h3q29 -5 194 -41l189 -41q-21 7 -181 62t-202 79q-43 38 -62.5 99t-11.5 112q1 4 5.5 8t9.5 4z" />
    <glyph glyph-name="icon_launch_page_fil" unicode="&#xebaa;" 
d="M352 608q-27 1 -45 19t-18 45t18 45t45 18t45 -18t18 -45t-18 -45t-45 -19zM320 -32h384q14 0 23 -9t9 -23t-9 -23t-23 -9h-384q-14 0 -23 9t-9 23t9 23t23 9zM832 440v328q0 14 -9 23t-23 9h-576q-14 0 -23 -9t-9 -23v-371l74 74q10 9 22.5 9t22.5 -9l108 -106l234 234
q10 10 23.5 9t23.5 -11zM128 320v448q1 41 28 68t68 28h576q41 -1 68 -28t28 -68v-672q-1 -41 -28 -68t-68 -28h-576q-41 1 -68 28t-28 68v224z" />
    <glyph glyph-name="icon_photo_fill" unicode="&#xebac;" 
d="M304 448q-34 1 -56.5 23.5t-22.5 56.5t22.5 56.5t56.5 22.5t56.5 -22.5t22.5 -56.5t-22.5 -56.5t-56.5 -23.5zM928 223v481q0 14 -9 23t-23 9h-768q-14 0 -23 -9t-9 -23v-486l107 86q9 7 19.5 7.5t20.5 -6.5l108 -81l22 50l275 191q10 6 21 5t20 -9zM991 51v-19h-4
q-11 -28 -35 -45.5t-56 -18.5h-768q-41 1 -68 28t-28 68v640q1 41 28 68t68 28h768q41 -1 68 -28t28 -68v-640q0 -7 -1 -13z" />
  </font>
</defs>
</svg>
